<svg width="249" height="46" viewBox="0 0 249 46" fill="none" xmlns="http://www.w3.org/2000/svg">
<path d="M44.8605 37.0713C44.0354 37.0713 43.2756 36.865 42.5808 36.4525C41.9078 36.04 41.365 35.4972 40.9525 34.8242C40.5617 34.1512 40.3663 33.4021 40.3663 32.5771V25.4777H55.2817V22.8398C55.2817 22.7312 55.2383 22.6444 55.1514 22.5793C55.0863 22.4924 54.9995 22.449 54.8909 22.449H40.3663V18.1828H55.0537C55.8787 18.1828 56.6278 18.389 57.3008 18.8016C57.9956 19.2141 58.5383 19.7568 58.9291 20.4299C59.3416 21.1029 59.5479 21.8519 59.5479 22.677V37.0713H44.8605ZM45.0233 32.8051H55.2817V29.3205H44.6325V32.4143C44.6325 32.5229 44.6651 32.6206 44.7302 32.7074C44.817 32.7725 44.9147 32.8051 45.0233 32.8051ZM67.1794 37.0713C66.3326 37.0713 65.5728 36.865 64.8997 36.4525C64.2267 36.04 63.6839 35.4972 63.2714 34.8242C62.8806 34.1512 62.6852 33.4021 62.6852 32.5771V22.677C62.6852 21.8519 62.8806 21.1029 63.2714 20.4299C63.6839 19.7568 64.2267 19.2141 64.8997 18.8016C65.5728 18.389 66.3326 18.1828 67.1794 18.1828H77.6332V11.9952H81.8994V37.0713H67.1794ZM67.3748 32.8051H77.2424C77.3509 32.8051 77.4378 32.7725 77.5029 32.7074C77.5897 32.6206 77.6332 32.5229 77.6332 32.4143V22.8398C77.6332 22.7312 77.5897 22.6444 77.5029 22.5793C77.4378 22.4924 77.3509 22.449 77.2424 22.449H67.3748C67.2662 22.449 67.1685 22.4924 67.0817 22.5793C67.0165 22.6444 66.984 22.7312 66.984 22.8398V32.4143C66.984 32.5229 67.0165 32.6206 67.0817 32.7074C67.1685 32.7725 67.2662 32.8051 67.3748 32.8051ZM88.8032 44.529V40.2302H100.169C100.277 40.2302 100.364 40.1868 100.429 40.1C100.516 40.0348 100.56 39.948 100.56 39.8394V37.0713H90.1384C89.3351 37.0713 88.5861 36.865 87.8913 36.4525C87.2183 36.04 86.6755 35.4972 86.263 34.8242C85.8505 34.1512 85.6442 33.4021 85.6442 32.5771V22.677C85.6442 21.8519 85.8505 21.1029 86.263 20.4299C86.6755 19.7568 87.2183 19.2141 87.8913 18.8016C88.5861 18.389 89.3351 18.1828 90.1384 18.1828H100.364C101.189 18.1828 101.938 18.389 102.611 18.8016C103.284 19.2141 103.816 19.7568 104.207 20.4299C104.62 21.1029 104.826 21.8519 104.826 22.677V40.0348C104.826 40.8816 104.63 41.6414 104.24 42.3145C103.849 42.9875 103.306 43.5194 102.611 43.9102C101.938 44.3227 101.189 44.529 100.364 44.529H88.8032ZM90.3012 32.8051H100.169C100.277 32.8051 100.364 32.7725 100.429 32.7074C100.516 32.6206 100.56 32.5229 100.56 32.4143V22.8398C100.56 22.7312 100.516 22.6444 100.429 22.5793C100.364 22.4924 100.277 22.449 100.169 22.449H90.3012C90.1927 22.449 90.095 22.4924 90.0081 22.5793C89.943 22.6444 89.9104 22.7312 89.9104 22.8398V32.4143C89.9104 32.5229 89.943 32.6206 90.0081 32.7074C90.095 32.7725 90.1927 32.8051 90.3012 32.8051ZM112.678 37.0713C111.853 37.0713 111.104 36.865 110.431 36.4525C109.758 36.04 109.215 35.4972 108.802 34.8242C108.39 34.1512 108.184 33.4021 108.184 32.5771V22.677C108.184 21.8519 108.39 21.1029 108.802 20.4299C109.215 19.7568 109.758 19.2141 110.431 18.8016C111.104 18.389 111.853 18.1828 112.678 18.1828H122.871C123.696 18.1828 124.445 18.389 125.118 18.8016C125.813 19.2141 126.356 19.7568 126.747 20.4299C127.159 21.1029 127.365 21.8519 127.365 22.677V29.7764H112.45V32.4143C112.45 32.5229 112.482 32.6206 112.548 32.7074C112.634 32.7725 112.732 32.8051 112.841 32.8051H127.365V37.0713H112.678ZM112.45 25.9336H123.099V22.8398C123.099 22.7312 123.056 22.6444 122.969 22.5793C122.904 22.4924 122.817 22.449 122.708 22.449H112.841C112.732 22.449 112.634 22.4924 112.548 22.5793C112.482 22.6444 112.45 22.7312 112.45 22.8398V25.9336ZM135.943 37.0713C135.118 37.0713 134.369 36.865 133.696 36.4525C133.023 36.04 132.48 35.4972 132.067 34.8242C131.655 34.1512 131.449 33.4021 131.449 32.5771V12.386H135.715V18.1828H143.075V22.449H135.715V32.4143C135.715 32.5229 135.747 32.6206 135.812 32.7074C135.899 32.7725 135.997 32.8051 136.106 32.8051H143.075V37.0713H135.943ZM151.509 37.0713C150.684 37.0713 149.924 36.865 149.229 36.4525C148.556 36.04 148.014 35.4972 147.601 34.8242C147.21 34.1512 147.015 33.4021 147.015 32.5771V25.4777H161.93V22.8398C161.93 22.7312 161.887 22.6444 161.8 22.5793C161.735 22.4924 161.648 22.449 161.539 22.449H147.015V18.1828H161.702C162.527 18.1828 163.276 18.389 163.949 18.8016C164.644 19.2141 165.187 19.7568 165.578 20.4299C165.99 21.1029 166.196 21.8519 166.196 22.677V37.0713H151.509ZM151.672 32.8051H161.93V29.3205H151.281V32.4143C151.281 32.5229 151.314 32.6206 151.379 32.7074C151.466 32.7725 151.563 32.8051 151.672 32.8051ZM169.61 37.0713V22.677C169.61 21.8519 169.817 21.1029 170.229 20.4299C170.642 19.7568 171.184 19.2141 171.857 18.8016C172.552 18.389 173.301 18.1828 174.104 18.1828H184.591V22.449H174.267C174.159 22.449 174.061 22.4924 173.974 22.5793C173.909 22.6444 173.876 22.7312 173.876 22.8398V37.0713H169.61ZM187.721 37.0713V18.1828H191.988V37.0713H187.721ZM187.721 16.2939V11.9952H191.988V16.2939H187.721ZM200.119 37.0713C199.294 37.0713 198.534 36.865 197.839 36.4525C197.166 36.04 196.623 35.4972 196.211 34.8242C195.82 34.1512 195.625 33.4021 195.625 32.5771V18.1828H199.891V32.4143C199.891 32.5229 199.923 32.6206 199.989 32.7074C200.075 32.7725 200.173 32.8051 200.282 32.8051H210.149C210.258 32.8051 210.345 32.7725 210.41 32.7074C210.497 32.6206 210.54 32.5229 210.54 32.4143V18.1828H214.806V32.5771C214.806 33.4021 214.6 34.1512 214.188 34.8242C213.797 35.4972 213.265 36.04 212.592 36.4525C211.919 36.865 211.159 37.0713 210.312 37.0713H200.119ZM218.157 37.0713V18.1828H241.573C242.419 18.1828 243.179 18.389 243.852 18.8016C244.525 19.2141 245.057 19.7568 245.448 20.4299C245.86 21.1029 246.067 21.8519 246.067 22.677V37.0713H241.833V22.8398C241.833 22.7312 241.79 22.6444 241.703 22.5793C241.616 22.4924 241.518 22.449 241.41 22.449H234.668C234.56 22.449 234.462 22.4924 234.375 22.5793C234.31 22.6444 234.278 22.7312 234.278 22.8398V37.0713H229.979V22.8398C229.979 22.7312 229.935 22.6444 229.849 22.5793C229.783 22.4924 229.697 22.449 229.588 22.449H222.814C222.706 22.449 222.608 22.4924 222.521 22.5793C222.456 22.6444 222.423 22.7312 222.423 22.8398V37.0713H218.157Z" fill="white"/>
<rect y="0.407227" width="36.2301" height="41.115" fill="#CB11AB"/>
<path d="M18.3556 37.403C16.4749 37.403 14.7041 37.0611 13.0432 36.3772C11.4067 35.6933 9.97787 34.7529 8.75663 33.5561C7.53539 32.3349 6.57061 30.9182 5.86229 29.3062C5.1784 27.6697 4.83645 25.9112 4.83645 24.0304C4.83645 22.1497 5.19061 20.4034 5.89893 18.7913C6.60725 17.1793 7.58424 15.7749 8.8299 14.5781C10.1 13.3568 11.5777 12.4165 13.263 11.757C14.9483 11.0731 16.7557 10.7312 18.6853 10.7312C20.908 10.7312 22.923 11.1342 24.7304 11.9402C26.5623 12.7462 28.0766 13.8575 29.2734 15.2742L25.3533 19.1943C24.5228 18.1196 23.5458 17.3136 22.4223 16.7763C21.2988 16.2389 20.0287 15.9703 18.612 15.9703C17.0977 15.9703 15.7421 16.3122 14.5453 16.9961C13.3485 17.6556 12.4081 18.5959 11.7242 19.8172C11.0648 21.014 10.735 22.4184 10.735 24.0304C10.735 25.6425 11.0648 27.0591 11.7242 28.2804C12.3837 29.5016 13.2874 30.4542 14.4354 31.1381C15.5834 31.8219 16.9023 32.1639 18.3922 32.1639C19.9065 32.1639 21.1888 31.883 22.2391 31.3212C23.3138 30.735 24.132 29.9046 24.6938 28.8299C25.28 27.7308 25.5731 26.3996 25.5731 24.8365L29.3834 27.4011L17.8426 27.2179V22.3451H31.435V23.1878C31.435 26.2897 30.8733 28.9032 29.7497 31.0281C28.6506 33.1287 27.1118 34.7163 25.1334 35.791C23.1795 36.8657 20.9202 37.403 18.3556 37.403Z" fill="white"/>
</svg>
